<?xml version="1.0" standalone="no"?><!DOCTYPE svg PUBLIC "-//W3C//DTD SVG 1.1//EN" "http://www.w3.org/Graphics/SVG/1.1/DTD/svg11.dtd"><svg t="1565166697272" class="icon" viewBox="0 0 1024 1024" version="1.1" xmlns="http://www.w3.org/2000/svg" p-id="2076" width="128" height="128" xmlns:xlink="http://www.w3.org/1999/xlink"><defs><style type="text/css"></style></defs><path d="M348.1 270.4s36.7-13.6 106.8 0c70 13.6 111.3-66.2 163.5-93.9 52.2-27.7 104-52.9 153 25 68.9 73.9 129.9 43 153.9 93.9 36.2 76.9-38.4 81.3-38.4 81.3s110.4 87-108.5 118.3c0 0-54.2 96.1-171 54.3 0 0-12.5 68.7-68.8 89.5-56.3 20.8-93.8-50-166.8-22.9-73 27.1-191.8 25.2-191.8-66.6s54.2-83.5 66.7-141.9 48.5-105 101.4-137z" fill="#77DBCF" p-id="2077"></path><path d="M446.6 625c-21.6 0-40.8-8.9-58.4-17-26.4-12.2-49.1-22.7-81-10.9-52.8 19.6-130.9 25.9-177.5-6.5-25-17.4-38.2-43.9-38.2-76.7 0-61.1 23.1-85 41.6-104.2 12-12.4 21.4-22.2 25.5-41.4 13.2-61.8 51.1-113.2 109.5-148.4 1-0.6 2-1.1 3-1.4 1.7-0.6 42.3-15.1 116.3-0.8 37.2 7.3 66.2-19.9 96.8-48.7 17.2-16.2 35.1-32.9 55-43.5 49.3-26.2 116.7-62.1 175.4 29.7 32.5 34.3 62.3 43 88.7 50.7 25.7 7.5 52.3 15.2 67.1 46.6 14.2 30 15.4 55.2 3.7 74.9-6.7 11.3-16.4 18.5-25.9 23.2 9.3 13.6 17 31.9 11.6 52-9.7 36-56.1 60-141.9 73.3-16.3 22.6-71.9 85.7-169.1 60.3-8.6 24.9-29.3 67-74.8 83.8-9.6 3.6-18.7 5-27.4 5z m-112.3-68.5c27.1 0 49.6 10.4 68.8 19.3 24.3 11.3 40.1 17.9 58.6 11 45.9-17 57.4-75.6 57.6-76.2 1-5.1 4.1-9.5 8.6-12.1 4.5-2.6 9.9-3.1 14.8-1.3 100.8 36.1 147.7-43 149.6-46.4 2.7-4.7 7.5-8 12.9-8.8 103.6-14.8 118.5-40.9 120.6-48.5 4-14.6-13.9-33-20.5-38.3-5.7-4.6-8.1-12.2-5.8-19.2 2.2-7 8.5-11.9 15.8-12.3 5.8-0.4 22.5-3.8 28.8-14.5 6.5-11.1 0.7-28.8-5.4-41.7-7.7-16.3-19.3-20.2-45-27.7-28-8.1-66.3-19.3-105.9-61.7-0.8-0.8-1.5-1.7-2-2.7-39.3-62.6-74.9-47.9-129.7-18.8-15.7 8.4-31.1 22.8-47.4 38-34.1 32-72.7 68.3-127.8 57.6-56.1-10.9-89.1-3.1-96.1-1.1-48.8 30-80.4 73-91.4 124.4-6.2 29-21.3 44.7-34.6 58.5-17 17.6-31.7 32.9-31.7 79.7 0 21.3 7.5 36.9 23 47.7 34.2 23.8 100.2 19 144.9 2.4 14-5.2 27.2-7.3 39.3-7.3z" fill="#333333" p-id="2078"></path><path d="M516 383c-6.7 0-13-3.8-16.1-10.2-4.1-8.8-0.3-19.4 8.5-23.5 3.7-1.8 87.2-42.4 98.3-140.3 1.1-9.7 9.5-16.8 19.6-15.6 9.7 1.1 16.7 9.9 15.6 19.6-13.4 118.1-114.2 166.3-118.5 168.3-2.3 1.2-4.9 1.7-7.4 1.7z" fill="#333333" p-id="2079"></path><path d="M599 432.9c-55.8 0-90.3-20.9-92.4-22.3-8.3-5.2-10.8-16.1-5.7-24.4 5.2-8.3 16-10.8 24.3-5.7 2.8 1.7 64.8 38.2 158.8-1.3 8.9-3.8 19.4 0.4 23.2 9.5 3.8 9-0.4 19.4-9.5 23.2-37.3 15.8-70.7 21-98.7 21zM430.1 548.2c-9.1 0-16.8-6.9-17.6-16.1-8.8-96.5 29.8-127.9 34.2-131.1 7.8-5.8 19-4.1 24.7 3.8 5.7 7.8 4.2 18.6-3.4 24.5-1.2 1-27.1 24.9-20.3 99.7 0.9 9.7-6.3 18.3-16 19.2-0.6-0.1-1.1 0-1.6 0z" fill="#333333" p-id="2080"></path><path d="M249.8 478.7c-6.1 0-12-3.1-15.3-8.8-4.9-8.4-2.1-19.3 6.4-24.2 73.8-43.1 179.6-67.5 184-68.5 9.5-2.2 19 3.8 21.2 13.3 2.2 9.5-3.8 19-13.3 21.2-1 0.2-105.1 24.3-174.1 64.6-2.8 1.6-5.9 2.4-8.9 2.4zM457.2 363.8c-4.4 0-8.9-1.7-12.3-5-0.8-0.7-50.9-48-129.2-52.9-9.7-0.6-17.2-9-16.6-18.8 0.6-9.8 9.1-17.3 18.8-16.6 92.1 5.8 149.3 60.6 151.7 62.9 7 6.8 7.1 18 0.3 25-3.5 3.6-8.1 5.4-12.7 5.4zM698.6 928.2c-3.9 0-7.8-1.3-11-3.9-5.2-4.2-128.3-104.2-131-238.1-2.4-117.9-33.7-161.1-34-161.6-5.8-7.8-4.3-18.8 3.4-24.7 7.7-5.9 18.6-4.6 24.6 3.1 1.6 2 38.7 50.9 41.4 182.5 2.4 117.6 116.6 210.3 117.8 211.2 7.6 6.1 8.9 17.2 2.8 24.9-3.6 4.3-8.8 6.6-14 6.6z" fill="#333333" p-id="2081"></path><path d="M457.8 429.6c-4.6 0-9-0.4-13.3-1.4-15.4-3.3-27.2-12.5-32.4-25.3-5.2-12.7-3.2-27.6 5.6-40.7 7.5-11.2 19.3-20.5 33.4-26.3 14-5.7 29-7.3 42.2-4.5 15.4 3.3 27.2 12.5 32.4 25.3 10 24.6-7.1 54-38.9 67-9.6 4-19.5 5.9-29 5.9z m22.1-64c-4.9 0-10.3 1.1-15.6 3.2-7.4 3-13.7 7.8-17.2 13.1-2 3.1-2.9 6.1-2.3 7.8 0.7 1.7 3.5 3.2 7.1 4 6.2 1.3 14 0.4 21.4-2.6 14.8-6 21-16.9 19.4-20.9-0.7-1.7-3.4-3.2-7.1-4-1.7-0.4-3.6-0.6-5.7-0.6z" fill="#333333" p-id="2082"></path></svg>