<?xml version="1.0" standalone="no"?><!DOCTYPE svg PUBLIC "-//W3C//DTD SVG 1.1//EN" "http://www.w3.org/Graphics/SVG/1.1/DTD/svg11.dtd"><svg t="1565056040342" class="icon" viewBox="0 0 1024 1024" version="1.1" xmlns="http://www.w3.org/2000/svg" p-id="1991" xmlns:xlink="http://www.w3.org/1999/xlink" width="128" height="128"><defs><style type="text/css"></style></defs><path d="M512 1024C229.6832 1024 0 794.29632 0 512S229.6832 0 512 0s512 229.70368 512 512-229.66272 512-512 512z m0-921.6C286.14656 102.4 102.4 286.14656 102.4 512s183.74656 409.6 409.6 409.6 409.6-183.74656 409.6-409.6S737.85344 102.4 512 102.4z" p-id="1992" fill="#1afa29"></path><path d="M373.39136 701.80864l-102.4-102.4a51.2 51.2 0 0 1 72.3968-72.3968L409.6 593.2032l271.01184-271.01184a51.2 51.2 0 0 1 72.3968 72.3968l-307.2 307.2a51.2 51.2 0 0 1-72.41728 0.02048z" p-id="1993" fill="#1afa29"></path></svg>