<?xml version="1.0" standalone="no"?><!DOCTYPE svg PUBLIC "-//W3C//DTD SVG 1.1//EN" "http://www.w3.org/Graphics/SVG/1.1/DTD/svg11.dtd"><svg t="1565167335989" class="icon" viewBox="0 0 1024 1024" version="1.1" xmlns="http://www.w3.org/2000/svg" p-id="5293" width="32" height="32" xmlns:xlink="http://www.w3.org/1999/xlink"><defs><style type="text/css"></style></defs><path d="M519.550131 841.207366a325.125238 325.125238 0 1 1 325.630988-325.125238 325.125238 325.125238 0 0 1-325.630988 325.125238z m0-615.570451a290.661963 290.661963 0 1 0 206.05715 496.141114 288.349961 288.349961 0 0 0 85.327313-205.479151A291.384463 291.384463 0 0 0 519.47788 225.636915z" fill="#1afa29" p-id="5294"></path><path d="M382.05828 431.043816L467.674593 516.587878 382.05828 602.131941l51.369787 51.369788 85.544063-85.544063 85.616313 85.544063 51.297537-51.369788L570.341918 516.587878l85.544062-85.544062-51.297537-51.369788-85.616313 85.544063-85.544063-85.544063-51.369787 51.369788z" fill="#1afa29" p-id="5295"></path><path d="M604.588443 677.705496L519.04438 592.450434 433.500318 677.705496 357.854512 602.204191 443.470825 516.587878 357.854512 431.043816 433.500318 355.47026 519.04438 440.725323l85.544063-85.255063 75.573555 75.573556L594.545685 516.587878l85.616313 85.616313zM406.262048 602.204191L433.500318 629.297961l85.544062-85.544063L604.588443 629.297961l27.16602-27.16602L546.13815 516.587878l85.616313-85.544062-27.16602-27.16602-85.544063 85.616313L433.500318 403.877796l-27.16602 27.16602L491.87836 516.587878z" fill="#1afa29" p-id="5296"></path><path d="M1011.861991 563.550413l-34.029775-3.757003c1.372751-12.571509 2.167502-22.975517 2.601002-32.801524A471.287095 471.287095 0 0 0 529.087138 37.353277l1.372751-34.174275a505.02787 505.02787 0 0 1 484.075354 525.041135c-0.289 10.620758-1.228251 21.747266-2.673252 35.330276zM62.929796 742.369294A504.95562 504.95562 0 0 1 307.207225 45.228533l13.79976 31.356523a470.709095 470.709095 0 0 0-227.804417 649.816976zM509.868623 1012.728992c-6.719255 0-13.51076 0-20.230014-0.433501a502.499118 502.499118 0 0 1-278.740705-97.609821l20.302265-27.52727a470.781345 470.781345 0 0 0 676.621746-127.738094l28.900021 18.351514a507.050871 507.050871 0 0 1-426.853313 234.957172z" fill="#1afa29" p-id="5297"></path><path d="M732.615537 866.133634l-17.918014-28.900021c8.670006-5.346504 15.822762-9.970507 22.397517-14.45001a383.358781 383.358781 0 0 0 89.734566-534.650392l27.88852-19.868765a417.605306 417.605306 0 0 1-97.754322 582.407677c-7.225005 4.696253-14.955761 9.753757-24.348267 15.461511z" fill="#1afa29" p-id="5298"></path></svg>